<svg xmlns="http://www.w3.org/2000/svg" xmlns:xlink="http://www.w3.org/1999/xlink" width="1200" zoomAndPan="magnify" viewBox="0 0 900 299.999988" height="400" preserveAspectRatio="xMidYMid meet" version="1.0"><defs><g/><clipPath id="9823f5bfba"><rect x="0" width="664" y="0" height="184"/></clipPath></defs><g transform="matrix(1, 0, 0, 1, 220, 50)"><g clip-path="url(#9823f5bfba)"><g fill="#0f172a" fill-opacity="1"><g transform="translate(1.609456, 145.000061)"><g><path d="M 14.09375 -104.984375 L 33.59375 -104.984375 L 33.59375 -16.5 L 88.484375 -16.5 L 88.484375 0 L 14.09375 0 Z M 14.09375 -104.984375 "/></g></g></g><g fill="#0f172a" fill-opacity="1"><g transform="translate(92.33484, 145.000061)"><g><path d="M 42.890625 -80.984375 C 54.691406 -80.984375 63.710938 -78.15625 69.953125 -72.5 C 76.203125 -66.851562 79.328125 -58.332031 79.328125 -46.9375 L 79.328125 0 L 61.640625 0 L 61.640625 -9.75 C 59.335938 -6.25 56.0625 -3.570312 51.8125 -1.71875 C 47.5625 0.125 42.4375 1.046875 36.4375 1.046875 C 30.4375 1.046875 25.1875 0.0234375 20.6875 -2.015625 C 16.195312 -4.066406 12.722656 -6.914062 10.265625 -10.5625 C 7.816406 -14.21875 6.59375 -18.34375 6.59375 -22.9375 C 6.59375 -30.144531 9.265625 -35.921875 14.609375 -40.265625 C 19.960938 -44.617188 28.390625 -46.796875 39.890625 -46.796875 L 60.59375 -46.796875 L 60.59375 -47.984375 C 60.59375 -53.585938 58.914062 -57.890625 55.5625 -60.890625 C 52.21875 -63.890625 47.242188 -65.390625 40.640625 -65.390625 C 36.140625 -65.390625 31.710938 -64.6875 27.359375 -63.28125 C 23.015625 -61.882812 19.34375 -59.9375 16.34375 -57.4375 L 9 -71.078125 C 13.195312 -74.285156 18.242188 -76.738281 24.140625 -78.4375 C 30.046875 -80.132812 36.296875 -80.984375 42.890625 -80.984375 Z M 40.34375 -12.59375 C 45.039062 -12.59375 49.210938 -13.664062 52.859375 -15.8125 C 56.515625 -17.96875 59.09375 -21.046875 60.59375 -25.046875 L 60.59375 -34.34375 L 41.234375 -34.34375 C 30.441406 -34.34375 25.046875 -30.789062 25.046875 -23.6875 C 25.046875 -20.289062 26.394531 -17.59375 29.09375 -15.59375 C 31.789062 -13.59375 35.539062 -12.59375 40.34375 -12.59375 Z M 40.34375 -12.59375 "/></g></g></g><g fill="#0f172a" fill-opacity="1"><g transform="translate(182.010427, 145.000061)"><g><path d="M 87.28125 -80.078125 L 52.9375 0 L 33.59375 0 L -0.75 -80.078125 L 18.75 -80.078125 L 43.640625 -20.703125 L 69.28125 -80.078125 Z M 87.28125 -80.078125 "/></g></g></g><g fill="#0f172a" fill-opacity="1"><g transform="translate(268.83683, 145.000061)"><g><path d="M 12.296875 -80.078125 L 31.046875 -80.078125 L 31.046875 0 L 12.296875 0 Z M 21.75 -93.28125 C 18.34375 -93.28125 15.488281 -94.351562 13.1875 -96.5 C 10.894531 -98.65625 9.75 -101.332031 9.75 -104.53125 C 9.75 -107.726562 10.894531 -110.398438 13.1875 -112.546875 C 15.488281 -114.703125 18.34375 -115.78125 21.75 -115.78125 C 25.144531 -115.78125 27.988281 -114.753906 30.28125 -112.703125 C 32.582031 -110.648438 33.734375 -108.078125 33.734375 -104.984375 C 33.734375 -101.679688 32.609375 -98.90625 30.359375 -96.65625 C 28.117188 -94.40625 25.25 -93.28125 21.75 -93.28125 Z M 21.75 -93.28125 "/></g></g></g><g fill="#0f172a" fill-opacity="1"><g transform="translate(312.325021, 145.000061)"><g><path d="M 91.78125 -80.078125 L 91.78125 -12.140625 C 91.78125 16.046875 77.382812 30.140625 48.59375 30.140625 C 40.894531 30.140625 33.59375 29.164062 26.6875 27.21875 C 19.789062 25.269531 14.09375 22.445312 9.59375 18.75 L 18 4.65625 C 21.5 7.550781 25.921875 9.875 31.265625 11.625 C 36.617188 13.375 42.046875 14.25 47.546875 14.25 C 56.335938 14.25 62.78125 12.25 66.875 8.25 C 70.976562 4.25 73.03125 -1.847656 73.03125 -10.046875 L 73.03125 -14.25 C 69.832031 -10.75 65.929688 -8.097656 61.328125 -6.296875 C 56.734375 -4.492188 51.6875 -3.59375 46.1875 -3.59375 C 38.59375 -3.59375 31.71875 -5.21875 25.5625 -8.46875 C 19.414062 -11.71875 14.566406 -16.289062 11.015625 -22.1875 C 7.472656 -28.09375 5.703125 -34.84375 5.703125 -42.4375 C 5.703125 -50.039062 7.472656 -56.765625 11.015625 -62.609375 C 14.566406 -68.460938 19.414062 -72.988281 25.5625 -76.1875 C 31.71875 -79.382812 38.59375 -80.984375 46.1875 -80.984375 C 51.988281 -80.984375 57.265625 -80.03125 62.015625 -78.125 C 66.765625 -76.226562 70.738281 -73.332031 73.9375 -69.4375 L 73.9375 -80.078125 Z M 49.046875 -19.5 C 56.140625 -19.5 61.957031 -21.625 66.5 -25.875 C 71.050781 -30.125 73.328125 -35.644531 73.328125 -42.4375 C 73.328125 -49.132812 71.050781 -54.582031 66.5 -58.78125 C 61.957031 -62.988281 56.140625 -65.09375 49.046875 -65.09375 C 41.835938 -65.09375 35.957031 -62.988281 31.40625 -58.78125 C 26.863281 -54.582031 24.59375 -49.132812 24.59375 -42.4375 C 24.59375 -35.644531 26.863281 -30.125 31.40625 -25.875 C 35.957031 -21.625 41.835938 -19.5 49.046875 -19.5 Z M 49.046875 -19.5 "/></g></g></g><g fill="#0f172a" fill-opacity="1"><g transform="translate(416.546687, 145.000061)"><g><path d="M 42.890625 -80.984375 C 54.691406 -80.984375 63.710938 -78.15625 69.953125 -72.5 C 76.203125 -66.851562 79.328125 -58.332031 79.328125 -46.9375 L 79.328125 0 L 61.640625 0 L 61.640625 -9.75 C 59.335938 -6.25 56.0625 -3.570312 51.8125 -1.71875 C 47.5625 0.125 42.4375 1.046875 36.4375 1.046875 C 30.4375 1.046875 25.1875 0.0234375 20.6875 -2.015625 C 16.195312 -4.066406 12.722656 -6.914062 10.265625 -10.5625 C 7.816406 -14.21875 6.59375 -18.34375 6.59375 -22.9375 C 6.59375 -30.144531 9.265625 -35.921875 14.609375 -40.265625 C 19.960938 -44.617188 28.390625 -46.796875 39.890625 -46.796875 L 60.59375 -46.796875 L 60.59375 -47.984375 C 60.59375 -53.585938 58.914062 -57.890625 55.5625 -60.890625 C 52.21875 -63.890625 47.242188 -65.390625 40.640625 -65.390625 C 36.140625 -65.390625 31.710938 -64.6875 27.359375 -63.28125 C 23.015625 -61.882812 19.34375 -59.9375 16.34375 -57.4375 L 9 -71.078125 C 13.195312 -74.285156 18.242188 -76.738281 24.140625 -78.4375 C 30.046875 -80.132812 36.296875 -80.984375 42.890625 -80.984375 Z M 40.34375 -12.59375 C 45.039062 -12.59375 49.210938 -13.664062 52.859375 -15.8125 C 56.515625 -17.96875 59.09375 -21.046875 60.59375 -25.046875 L 60.59375 -34.34375 L 41.234375 -34.34375 C 30.441406 -34.34375 25.046875 -30.789062 25.046875 -23.6875 C 25.046875 -20.289062 26.394531 -17.59375 29.09375 -15.59375 C 31.789062 -13.59375 35.539062 -12.59375 40.34375 -12.59375 Z M 40.34375 -12.59375 "/></g></g></g><g fill="#0f172a" fill-opacity="1"><g transform="translate(507.721936, 145.000061)"><g><path d="M 60.4375 -4.34375 C 58.238281 -2.550781 55.5625 -1.203125 52.40625 -0.296875 C 49.257812 0.597656 45.9375 1.046875 42.4375 1.046875 C 33.644531 1.046875 26.847656 -1.25 22.046875 -5.84375 C 17.242188 -10.445312 14.84375 -17.144531 14.84375 -25.9375 L 14.84375 -64.484375 L 1.65625 -64.484375 L 1.65625 -79.484375 L 14.84375 -79.484375 L 14.84375 -97.78125 L 33.59375 -97.78125 L 33.59375 -79.484375 L 55.03125 -79.484375 L 55.03125 -64.484375 L 33.59375 -64.484375 L 33.59375 -26.390625 C 33.59375 -22.492188 34.539062 -19.519531 36.4375 -17.46875 C 38.34375 -15.414062 41.09375 -14.390625 44.6875 -14.390625 C 48.882812 -14.390625 52.382812 -15.492188 55.1875 -17.703125 Z M 60.4375 -4.34375 "/></g></g></g><g fill="#0f172a" fill-opacity="1"><g transform="translate(568.755274, 145.000061)"><g><path d="M 87.578125 -39.59375 C 87.578125 -38.289062 87.476562 -36.441406 87.28125 -34.046875 L 24.4375 -34.046875 C 25.539062 -28.140625 28.414062 -23.460938 33.0625 -20.015625 C 37.71875 -16.566406 43.492188 -14.84375 50.390625 -14.84375 C 59.191406 -14.84375 66.441406 -17.742188 72.140625 -23.546875 L 82.1875 -12 C 78.582031 -7.695312 74.03125 -4.445312 68.53125 -2.25 C 63.03125 -0.0507812 56.832031 1.046875 49.9375 1.046875 C 41.144531 1.046875 33.394531 -0.703125 26.6875 -4.203125 C 19.988281 -7.703125 14.816406 -12.570312 11.171875 -18.8125 C 7.523438 -25.0625 5.703125 -32.140625 5.703125 -40.046875 C 5.703125 -47.835938 7.472656 -54.859375 11.015625 -61.109375 C 14.566406 -67.359375 19.492188 -72.234375 25.796875 -75.734375 C 32.097656 -79.234375 39.195312 -80.984375 47.09375 -80.984375 C 54.882812 -80.984375 61.851562 -79.257812 68 -75.8125 C 74.15625 -72.363281 78.957031 -67.515625 82.40625 -61.265625 C 85.851562 -55.015625 87.578125 -47.789062 87.578125 -39.59375 Z M 47.09375 -65.984375 C 41.09375 -65.984375 36.015625 -64.207031 31.859375 -60.65625 C 27.710938 -57.113281 25.191406 -52.390625 24.296875 -46.484375 L 69.734375 -46.484375 C 68.929688 -52.285156 66.476562 -56.984375 62.375 -60.578125 C 58.28125 -64.179688 53.1875 -65.984375 47.09375 -65.984375 Z M 47.09375 -65.984375 "/></g></g></g></g></g><path fill="#2563eb" d="M 102.355469 60.160156 C 95.359375 60.871094 90.265625 61.78125 85.378906 63.199219 C 71.355469 67.269531 59.152344 74.46875 48.816406 84.769531 C 44.332031 89.238281 41.773438 92.308594 38.65625 96.964844 C 34.441406 103.261719 31.898438 108.441406 29.640625 115.320312 C 22.570312 136.871094 24.203125 160.488281 34.136719 180.308594 C 42.261719 196.53125 54.707031 209.027344 70.710938 217.042969 C 87.636719 225.519531 107.488281 227.984375 125.683594 223.871094 C 137.453125 221.210938 148.335938 216.203125 157.792969 209.09375 C 164.152344 204.3125 170.660156 197.632812 175.261719 191.167969 C 188.207031 172.988281 193.308594 150.511719 189.609375 127.992188 C 188.390625 120.566406 184.933594 109.730469 182.519531 105.773438 C 182.019531 104.957031 180.828125 104.308594 179.824219 104.308594 C 179.5 104.308594 176.140625 105.851562 172.351562 107.742188 C 166.570312 110.621094 165.390625 111.296875 164.996094 111.945312 C 164.289062 113.109375 164.40625 114.152344 165.496094 116.398438 C 171.40625 128.5625 173.222656 141.640625 170.796875 154.515625 C 168.5625 166.355469 162.480469 177.933594 153.761719 186.933594 C 144.164062 196.839844 130.714844 203.777344 117.15625 205.804688 C 113.792969 206.308594 105.90625 206.507812 102.308594 206.175781 C 86.476562 204.71875 72.089844 197.597656 61.5 185.976562 C 54.125 177.878906 49.738281 170.222656 46.949219 160.554688 C 43.140625 147.375 43.648438 133.210938 48.386719 120.445312 C 49.535156 117.359375 52.164062 112.058594 54.015625 109.113281 C 60.078125 99.457031 68.835938 91.453125 78.96875 86.296875 C 93.816406 78.742188 110.625 77.199219 126.324219 81.949219 C 135.496094 84.722656 143.925781 89.644531 151.695312 96.757812 C 155.796875 100.519531 155.855469 100.5625 156.988281 100.683594 C 157.765625 100.765625 158.265625 100.65625 159.078125 100.222656 C 159.664062 99.90625 162.167969 98.605469 164.644531 97.328125 C 172 93.535156 172.457031 93.226562 172.71875 91.839844 C 172.941406 90.640625 172.160156 89.332031 169.566406 86.5625 C 157.453125 73.640625 140.707031 64.503906 123.550781 61.453125 C 118.675781 60.585938 114.773438 60.238281 108.988281 60.152344 C 105.859375 60.101562 102.875 60.109375 102.355469 60.160156 " fill-opacity="1" fill-rule="evenodd"/></svg>