<svg xmlns="http://www.w3.org/2000/svg" xmlns:xlink="http://www.w3.org/1999/xlink" width="512" zoomAndPan="magnify" viewBox="0 0 384 383.999986" height="512" preserveAspectRatio="xMidYMid meet" version="1.0"><path fill="#2563eb" d="M 181.167969 31.890625 C 167.554688 33.273438 157.640625 35.046875 148.136719 37.804688 C 120.839844 45.726562 97.097656 59.730469 76.988281 79.773438 C 68.261719 88.472656 63.28125 94.453125 57.214844 103.511719 C 49.015625 115.765625 44.0625 125.84375 39.671875 139.230469 C 25.910156 181.167969 29.085938 227.117188 48.417969 265.691406 C 64.234375 297.253906 88.449219 321.578125 119.589844 337.171875 C 152.523438 353.664062 191.152344 358.464844 226.5625 350.460938 C 249.460938 345.285156 270.644531 335.535156 289.042969 321.703125 C 301.421875 312.398438 314.085938 299.402344 323.039062 286.824219 C 348.226562 251.445312 358.160156 207.707031 350.960938 163.886719 C 348.585938 149.4375 341.855469 128.351562 337.160156 120.652344 C 336.191406 119.0625 333.867188 117.800781 331.914062 117.800781 C 331.285156 117.800781 324.746094 120.804688 317.375 124.476562 C 306.125 130.085938 303.832031 131.398438 303.0625 132.660156 C 301.683594 134.921875 301.910156 136.953125 304.035156 141.328125 C 315.535156 164.996094 319.074219 190.445312 314.347656 215.503906 C 310.003906 238.539062 298.164062 261.066406 281.199219 278.582031 C 262.519531 297.863281 236.351562 311.355469 209.972656 315.308594 C 203.421875 316.289062 188.078125 316.667969 181.078125 316.023438 C 150.269531 313.191406 122.269531 299.332031 101.667969 276.722656 C 87.3125 260.964844 78.78125 246.0625 73.347656 227.253906 C 65.941406 201.605469 66.929688 174.039062 76.152344 149.199219 C 78.378906 143.191406 83.5 132.878906 87.101562 127.148438 C 98.898438 108.363281 115.941406 92.78125 135.660156 82.75 C 164.550781 68.054688 197.257812 65.050781 227.808594 74.289062 C 245.65625 79.6875 262.0625 89.265625 277.175781 103.109375 C 285.160156 110.425781 285.273438 110.507812 287.476562 110.746094 C 288.996094 110.910156 289.96875 110.695312 291.546875 109.847656 C 292.6875 109.234375 297.558594 106.703125 302.375 104.21875 C 316.691406 96.839844 317.582031 96.234375 318.085938 93.539062 C 318.527344 91.203125 317.003906 88.65625 311.953125 83.265625 C 288.386719 58.121094 255.800781 40.339844 222.414062 34.410156 C 212.925781 32.722656 205.332031 32.042969 194.070312 31.871094 C 187.988281 31.777344 182.183594 31.789062 181.167969 31.890625 " fill-opacity="1" fill-rule="evenodd"/></svg>